<svg width="235" height="155" viewBox="0 0 235 155" fill="none" xmlns="http://www.w3.org/2000/svg">
<mask id="path-1-outside-1_2_30" maskUnits="userSpaceOnUse" x="1" y="28" width="85" height="99" fill="black">
<rect fill="white" x="1" y="28" width="85" height="99"/>
<path d="M4.18182 124L19.6364 30.9091H44.7273L38.9091 66.3636H39.2727C40.5455 64 42.2273 61.8333 44.3182 59.8636C46.4091 57.8636 48.8636 56.2727 51.6818 55.0909C54.5 53.8788 57.6364 53.2727 61.0909 53.2727C65.697 53.2727 69.8636 54.5 73.5909 56.9545C77.3485 59.4091 80.0909 63.2727 81.8182 68.5455C83.5758 73.8182 83.7576 80.6667 82.3636 89.0909C81.0303 97.1515 78.6667 103.833 75.2727 109.136C71.8788 114.439 67.8788 118.394 63.2727 121C58.6667 123.606 53.8788 124.909 48.9091 124.909C45.6364 124.909 42.803 124.379 40.4091 123.318C38.0455 122.227 36.1212 120.758 34.6364 118.909C33.1818 117.03 32.1818 114.909 31.6364 112.545H30.9091L29.0909 124H4.18182ZM34.5455 89.0909C34 92.4848 33.9697 95.4242 34.4545 97.9091C34.9394 100.364 35.8939 102.273 37.3182 103.636C38.7424 104.97 40.6061 105.636 42.9091 105.636C45.2121 105.636 47.2879 104.985 49.1364 103.682C50.9848 102.348 52.5455 100.455 53.8182 98C55.0909 95.5152 56 92.5455 56.5455 89.0909C57.0909 85.6364 57.1364 82.6818 56.6818 80.2273C56.2273 77.7424 55.303 75.8485 53.9091 74.5455C52.5152 73.2121 50.6667 72.5455 48.3636 72.5455C46.0606 72.5455 43.9697 73.2121 42.0909 74.5455C40.2121 75.8485 38.6212 77.7424 37.3182 80.2273C36.0152 82.6818 35.0909 85.6364 34.5455 89.0909Z"/>
</mask>
<path d="M4.18182 124L19.6364 30.9091H44.7273L38.9091 66.3636H39.2727C40.5455 64 42.2273 61.8333 44.3182 59.8636C46.4091 57.8636 48.8636 56.2727 51.6818 55.0909C54.5 53.8788 57.6364 53.2727 61.0909 53.2727C65.697 53.2727 69.8636 54.5 73.5909 56.9545C77.3485 59.4091 80.0909 63.2727 81.8182 68.5455C83.5758 73.8182 83.7576 80.6667 82.3636 89.0909C81.0303 97.1515 78.6667 103.833 75.2727 109.136C71.8788 114.439 67.8788 118.394 63.2727 121C58.6667 123.606 53.8788 124.909 48.9091 124.909C45.6364 124.909 42.803 124.379 40.4091 123.318C38.0455 122.227 36.1212 120.758 34.6364 118.909C33.1818 117.03 32.1818 114.909 31.6364 112.545H30.9091L29.0909 124H4.18182ZM34.5455 89.0909C34 92.4848 33.9697 95.4242 34.4545 97.9091C34.9394 100.364 35.8939 102.273 37.3182 103.636C38.7424 104.97 40.6061 105.636 42.9091 105.636C45.2121 105.636 47.2879 104.985 49.1364 103.682C50.9848 102.348 52.5455 100.455 53.8182 98C55.0909 95.5152 56 92.5455 56.5455 89.0909C57.0909 85.6364 57.1364 82.6818 56.6818 80.2273C56.2273 77.7424 55.303 75.8485 53.9091 74.5455C52.5152 73.2121 50.6667 72.5455 48.3636 72.5455C46.0606 72.5455 43.9697 73.2121 42.0909 74.5455C40.2121 75.8485 38.6212 77.7424 37.3182 80.2273C36.0152 82.6818 35.0909 85.6364 34.5455 89.0909Z" fill="#7752FE"/>
<path d="M4.18182 124L2.20882 123.672L1.82241 126H4.18182V124ZM19.6364 30.9091V28.9091H17.941L17.6634 30.5815L19.6364 30.9091ZM44.7273 30.9091L46.7009 31.233L47.0822 28.9091H44.7273V30.9091ZM38.9091 66.3636L36.9355 66.0398L36.5541 68.3636H38.9091V66.3636ZM39.2727 66.3636V68.3636H40.4673L41.0337 67.3118L39.2727 66.3636ZM44.3182 59.8636L45.6896 61.3194L45.6951 61.3142L45.7006 61.3089L44.3182 59.8636ZM51.6818 55.0909L52.4553 56.9353L52.4637 56.9318L52.472 56.9282L51.6818 55.0909ZM73.5909 56.9545L72.4909 58.6249L72.4971 58.629L73.5909 56.9545ZM81.8182 68.5455L79.9175 69.1681L79.9208 69.1779L81.8182 68.5455ZM82.3636 89.0909L80.3905 88.7644L80.3905 88.7645L82.3636 89.0909ZM75.2727 109.136L73.5882 108.058L73.5882 108.058L75.2727 109.136ZM63.2727 121L62.2879 119.259L62.2879 119.259L63.2727 121ZM40.4091 123.318L39.571 125.134L39.5849 125.141L39.599 125.147L40.4091 123.318ZM34.6364 118.909L33.0549 120.133L33.0659 120.148L33.0771 120.162L34.6364 118.909ZM31.6364 112.545L33.5851 112.096L33.2274 110.545H31.6364V112.545ZM30.9091 112.545V110.545H29.2015L28.9338 112.232L30.9091 112.545ZM29.0909 124V126H30.7985L31.0662 124.314L29.0909 124ZM34.5455 89.0909L36.5201 89.4083L36.521 89.4028L34.5455 89.0909ZM34.4545 97.9091L32.4916 98.2921L32.4925 98.2967L34.4545 97.9091ZM37.3182 103.636L35.935 105.081L35.9431 105.089L35.9513 105.096L37.3182 103.636ZM49.1364 103.682L50.2887 105.316L50.2976 105.31L50.3064 105.304L49.1364 103.682ZM53.8182 98L55.5937 98.9206L55.5983 98.9118L53.8182 98ZM56.5455 89.0909L54.5699 88.779L54.5699 88.779L56.5455 89.0909ZM56.6818 80.2273L54.7145 80.5872L54.7153 80.5915L56.6818 80.2273ZM53.9091 74.5455L52.5266 75.9907L52.5349 75.9987L52.5433 76.0065L53.9091 74.5455ZM42.0909 74.5455L43.2307 76.1889L43.2396 76.1827L43.2484 76.1765L42.0909 74.5455ZM37.3182 80.2273L39.0847 81.1651L39.0894 81.1561L37.3182 80.2273ZM6.15481 124.328L21.6094 31.2366L17.6634 30.5815L2.20882 123.672L6.15481 124.328ZM19.6364 32.9091H44.7273V28.9091H19.6364V32.9091ZM42.7537 30.5852L36.9355 66.0398L40.8827 66.6875L46.7009 31.233L42.7537 30.5852ZM38.9091 68.3636H39.2727V64.3636H38.9091V68.3636ZM41.0337 67.3118C42.1977 65.15 43.7439 63.1522 45.6896 61.3194L42.9468 58.4079C40.7106 60.5144 38.8932 62.85 37.5118 65.4154L41.0337 67.3118ZM45.7006 61.3089C47.6049 59.4874 49.85 58.0278 52.4553 56.9353L50.9084 53.2465C47.8773 54.5176 45.2133 56.2398 42.9357 58.4183L45.7006 61.3089ZM52.472 56.9282C55.011 55.8362 57.8739 55.2727 61.0909 55.2727V51.2727C57.3989 51.2727 53.989 51.9214 50.8916 53.2536L52.472 56.9282ZM61.0909 55.2727C65.3192 55.2727 69.1011 56.3926 72.4909 58.6249L74.6909 55.2842C70.6262 52.6074 66.0747 51.2727 61.0909 51.2727V55.2727ZM72.4971 58.629C75.7909 60.7805 78.2975 64.2226 79.9176 69.1681L83.7188 67.9228C81.8843 62.3228 78.9061 58.0376 74.6847 55.2801L72.4971 58.629ZM79.9208 69.1779C81.5348 74.02 81.7572 80.5044 80.3905 88.7644L84.3368 89.4174C85.7579 80.8289 85.6167 73.6164 83.7156 67.913L79.9208 69.1779ZM80.3905 88.7645C79.0888 96.6337 76.7994 103.041 73.5882 108.058L76.9573 110.214C80.5339 104.626 82.9718 97.6693 84.3368 89.4173L80.3905 88.7645ZM73.5882 108.058C70.3368 113.139 66.561 116.842 62.2879 119.259L64.2576 122.741C69.1966 119.946 73.4208 115.74 76.9573 110.214L73.5882 108.058ZM62.2879 119.259C57.962 121.707 53.5112 122.909 48.9091 122.909V126.909C54.2464 126.909 59.3713 125.505 64.2576 122.741L62.2879 119.259ZM48.9091 122.909C45.8478 122.909 43.3027 122.413 41.2192 121.49L39.599 125.147C42.3033 126.345 45.4249 126.909 48.9091 126.909V122.909ZM41.2472 121.502C39.1363 120.528 37.4685 119.241 36.1956 117.657L33.0771 120.162C34.774 122.274 36.9546 123.927 39.571 125.134L41.2472 121.502ZM36.2178 117.685C34.944 116.039 34.067 114.184 33.5851 112.096L29.6876 112.995C30.2966 115.634 31.4196 118.021 33.0549 120.133L36.2178 117.685ZM31.6364 110.545H30.9091V114.545H31.6364V110.545ZM28.9338 112.232L27.1156 123.686L31.0662 124.314L32.8844 112.859L28.9338 112.232ZM29.0909 122H4.18182V126H29.0909V122ZM32.5708 88.7736C32.0005 92.3222 31.9487 95.51 32.4916 98.2921L36.4175 97.5261C35.9907 95.3385 35.9995 92.6475 36.5201 89.4083L32.5708 88.7736ZM32.4925 98.2967C33.0355 101.046 34.1426 103.365 35.935 105.081L38.7013 102.192C37.6453 101.181 36.8433 99.6813 36.4166 97.5215L32.4925 98.2967ZM35.9513 105.096C37.8117 106.838 40.196 107.636 42.9091 107.636V103.636C41.0161 103.636 39.6731 103.101 38.685 102.176L35.9513 105.096ZM42.9091 107.636C45.6166 107.636 48.0964 106.862 50.2887 105.316L47.984 102.047C46.4793 103.108 44.8076 103.636 42.9091 103.636V107.636ZM50.3064 105.304C52.4573 103.752 54.2071 101.595 55.5937 98.9206L52.0427 97.0794C50.8838 99.3144 49.5124 100.945 47.9664 102.06L50.3064 105.304ZM55.5983 98.9118C56.9883 96.1979 57.9505 93.0159 58.521 89.4028L54.5699 88.779C54.0495 92.075 53.1935 94.8324 52.0381 97.0882L55.5983 98.9118ZM58.521 89.4028C59.0888 85.807 59.1572 82.6107 58.6484 79.8631L54.7153 80.5915C55.1155 82.753 55.0931 85.4658 54.5699 88.779L58.521 89.4028ZM58.6492 79.8674C58.1423 77.0964 57.07 74.7625 55.2749 73.0844L52.5433 76.0065C53.536 76.9345 54.3123 78.3885 54.7145 80.5872L58.6492 79.8674ZM55.2915 73.1002C53.4551 71.3435 51.0754 70.5455 48.3636 70.5455V74.5455C50.258 74.5455 51.5753 75.0807 52.5266 75.9907L55.2915 73.1002ZM48.3636 70.5455C45.6457 70.5455 43.1503 71.3412 40.9334 72.9144L43.2484 76.1765C44.7891 75.0831 46.4755 74.5455 48.3636 74.5455V70.5455ZM40.9511 72.902C38.7537 74.426 36.9662 76.5919 35.5469 79.2985L39.0894 81.1561C40.2762 78.8929 41.6705 77.2709 43.2307 76.1889L40.9511 72.902ZM35.5517 79.2895C34.1219 81.9827 33.1414 85.1597 32.5699 88.779L36.521 89.4028C37.0404 86.113 37.9084 83.3809 39.0847 81.1651L35.5517 79.2895Z" fill="#0A0A0A" mask="url(#path-1-outside-1_2_30)"/>
<mask id="path-3-outside-2_2_30" maskUnits="userSpaceOnUse" x="113" y="50" width="80" height="79" fill="black">
<rect fill="white" x="113" y="50" width="80" height="79"/>
<path d="M147 125.273C139.424 125.273 133.182 123.773 128.273 120.773C123.394 117.742 119.97 113.53 118 108.136C116.03 102.712 115.636 96.4242 116.818 89.2727C118 82.1212 120.47 75.8485 124.227 70.4545C127.985 65.0303 132.818 60.8182 138.727 57.8182C144.636 54.7879 151.394 53.2727 159 53.2727C166.545 53.2727 172.758 54.7879 177.636 57.8182C182.545 60.8182 185.985 65.0303 187.955 70.4545C189.955 75.8485 190.364 82.1212 189.182 89.2727C188 96.4242 185.515 102.712 181.727 108.136C177.939 113.53 173.091 117.742 167.182 120.773C161.303 123.773 154.576 125.273 147 125.273ZM150.091 106.727C152.273 106.727 154.258 106.015 156.045 104.591C157.864 103.167 159.409 101.136 160.682 98.5C161.985 95.8636 162.939 92.7273 163.545 89.0909C164.152 85.4242 164.242 82.2879 163.818 79.6818C163.394 77.0455 162.515 75.0152 161.182 73.5909C159.848 72.1667 158.091 71.4545 155.909 71.4545C153.727 71.4545 151.727 72.1667 149.909 73.5909C148.091 75.0152 146.545 77.0455 145.273 79.6818C144 82.2879 143.061 85.4242 142.455 89.0909C141.848 92.7273 141.742 95.8636 142.136 98.5C142.561 101.136 143.439 103.167 144.773 104.591C146.136 106.015 147.909 106.727 150.091 106.727Z"/>
</mask>
<path d="M147 125.273C139.424 125.273 133.182 123.773 128.273 120.773C123.394 117.742 119.97 113.53 118 108.136C116.03 102.712 115.636 96.4242 116.818 89.2727C118 82.1212 120.47 75.8485 124.227 70.4545C127.985 65.0303 132.818 60.8182 138.727 57.8182C144.636 54.7879 151.394 53.2727 159 53.2727C166.545 53.2727 172.758 54.7879 177.636 57.8182C182.545 60.8182 185.985 65.0303 187.955 70.4545C189.955 75.8485 190.364 82.1212 189.182 89.2727C188 96.4242 185.515 102.712 181.727 108.136C177.939 113.53 173.091 117.742 167.182 120.773C161.303 123.773 154.576 125.273 147 125.273ZM150.091 106.727C152.273 106.727 154.258 106.015 156.045 104.591C157.864 103.167 159.409 101.136 160.682 98.5C161.985 95.8636 162.939 92.7273 163.545 89.0909C164.152 85.4242 164.242 82.2879 163.818 79.6818C163.394 77.0455 162.515 75.0152 161.182 73.5909C159.848 72.1667 158.091 71.4545 155.909 71.4545C153.727 71.4545 151.727 72.1667 149.909 73.5909C148.091 75.0152 146.545 77.0455 145.273 79.6818C144 82.2879 143.061 85.4242 142.455 89.0909C141.848 92.7273 141.742 95.8636 142.136 98.5C142.561 101.136 143.439 103.167 144.773 104.591C146.136 106.015 147.909 106.727 150.091 106.727Z" fill="#8DE969"/>
<path d="M128.273 120.773L126.69 123.321L126.699 123.327L126.708 123.333L128.273 120.773ZM118 108.136L115.18 109.16L115.182 109.165L118 108.136ZM116.818 89.2727L119.778 89.7619L119.778 89.7619L116.818 89.2727ZM124.227 70.4545L126.689 72.1694L126.693 72.1629L124.227 70.4545ZM138.727 57.8182L140.085 60.4932L140.096 60.4876L138.727 57.8182ZM177.636 57.8182L176.053 60.3666L176.063 60.3723L176.072 60.378L177.636 57.8182ZM187.955 70.4545L185.135 71.4785L185.138 71.488L185.142 71.4975L187.955 70.4545ZM189.182 89.2727L192.142 89.7619L192.142 89.7619L189.182 89.2727ZM181.727 108.136L184.182 109.86L184.187 109.854L181.727 108.136ZM167.182 120.773L168.545 123.445L168.551 123.442L167.182 120.773ZM156.045 104.591L154.195 102.229L154.186 102.237L154.176 102.244L156.045 104.591ZM160.682 98.5L157.992 97.1707L157.986 97.1832L157.98 97.1958L160.682 98.5ZM163.545 89.0909L166.505 89.5841L166.505 89.5801L163.545 89.0909ZM163.818 79.6818L160.856 80.1584L160.857 80.1638L163.818 79.6818ZM145.273 79.6818L147.968 80.9983L147.974 80.9861L145.273 79.6818ZM142.455 89.0909L145.414 89.5841L145.414 89.5801L142.455 89.0909ZM142.136 98.5L139.169 98.9434L139.172 98.96L139.174 98.9766L142.136 98.5ZM144.773 104.591L142.583 106.641L142.594 106.653L142.606 106.666L144.773 104.591ZM147 122.273C139.806 122.273 134.148 120.847 129.837 118.213L126.708 123.333C132.215 126.698 139.043 128.273 147 128.273V122.273ZM129.856 118.224C125.547 115.548 122.557 111.871 120.818 107.107L115.182 109.165C117.382 115.19 121.241 119.937 126.69 123.321L129.856 118.224ZM120.82 107.112C119.065 102.281 118.659 96.5334 119.778 89.7619L113.858 88.7836C112.614 96.3151 112.995 103.143 115.18 109.16L120.82 107.112ZM119.778 89.7619C120.895 83.0051 123.212 77.1607 126.689 72.1694L121.766 68.7397C117.728 74.5363 115.105 81.2373 113.858 88.7836L119.778 89.7619ZM126.693 72.1629C130.166 67.1496 134.618 63.2689 140.085 60.4932L137.369 55.1432C131.018 58.3675 125.803 62.911 121.761 68.7462L126.693 72.1629ZM140.096 60.4876C145.524 57.7042 151.8 56.2727 159 56.2727V50.2727C150.987 50.2727 143.749 51.8715 137.358 55.1487L140.096 60.4876ZM159 56.2727C166.158 56.2727 171.777 57.7106 176.053 60.3666L179.219 55.2697C173.738 51.8652 166.933 50.2727 159 50.2727V56.2727ZM176.072 60.378C180.399 63.0221 183.396 66.6916 185.135 71.4785L190.774 69.4306C188.573 63.369 184.692 58.6143 179.201 55.2583L176.072 60.378ZM185.142 71.4975C186.919 76.2906 187.34 82.0151 186.222 88.7836L192.142 89.7619C193.387 82.2273 192.99 75.4064 190.767 69.4116L185.142 71.4975ZM186.222 88.7836C185.106 95.5362 182.775 101.396 179.268 106.419L184.187 109.854C188.255 104.029 190.894 97.3123 192.142 89.7619L186.222 88.7836ZM179.272 106.412C175.766 111.404 171.292 115.293 165.813 118.103L168.551 123.442C174.89 120.191 180.112 115.656 184.182 109.86L179.272 106.412ZM165.818 118.101C160.42 120.855 154.172 122.273 147 122.273V128.273C154.979 128.273 162.186 126.69 168.545 123.445L165.818 118.101ZM150.091 109.727C152.986 109.727 155.623 108.763 157.915 106.937L154.176 102.244C152.892 103.267 151.56 103.727 150.091 103.727V109.727ZM157.895 106.953C160.158 105.18 161.963 102.746 163.383 99.8042L157.98 97.1958C156.855 99.5265 155.569 101.153 154.195 102.229L157.895 106.953ZM163.371 99.8293C164.833 96.872 165.862 93.4407 166.505 89.5841L160.586 88.5977C160.017 92.0138 159.137 94.8553 157.992 97.1707L163.371 99.8293ZM166.505 89.5801C167.145 85.7123 167.272 82.2292 166.779 79.1998L160.857 80.1638C161.212 82.3466 161.158 85.1361 160.586 88.6017L166.505 89.5801ZM166.78 79.2052C166.295 76.1905 165.239 73.5346 163.372 71.5406L158.992 75.6412C159.792 76.4957 160.493 77.9004 160.856 80.1584L166.78 79.2052ZM163.372 71.5406C161.401 69.4356 158.812 68.4545 155.909 68.4545V74.4545C157.369 74.4545 158.296 74.8978 158.992 75.6412L163.372 71.5406ZM155.909 68.4545C153.016 68.4545 150.372 69.4174 148.059 71.2292L151.759 75.9526C153.082 74.916 154.439 74.4545 155.909 74.4545V68.4545ZM148.059 71.2292C145.797 73.0015 143.991 75.4356 142.571 78.3776L147.974 80.9861C149.1 78.6553 150.385 77.0288 151.759 75.9526L148.059 71.2292ZM142.577 78.3653C141.147 81.2944 140.136 84.7243 139.495 88.6017L145.414 89.5801C145.986 86.1242 146.853 83.2814 147.968 80.9983L142.577 78.3653ZM139.495 88.5977C138.856 92.4343 138.715 95.9028 139.169 98.9434L145.103 98.0566C144.77 95.8245 144.841 93.0202 145.414 89.5841L139.495 88.5977ZM139.174 98.9766C139.66 101.991 140.716 104.647 142.583 106.641L146.963 102.541C146.163 101.686 145.462 100.281 145.098 98.0234L139.174 98.9766ZM142.606 106.666C144.599 108.747 147.187 109.727 150.091 109.727V103.727C148.631 103.727 147.674 103.283 146.94 102.516L142.606 106.666Z" fill="black" mask="url(#path-3-outside-2_2_30)"/>
<mask id="path-5-outside-3_2_30" maskUnits="userSpaceOnUse" x="148" y="51" width="88" height="103" fill="black">
<rect fill="white" x="148" y="51" width="88" height="103"/>
<path d="M180.818 151.636C173.788 151.636 167.939 150.636 163.273 148.636C158.636 146.667 155.212 143.939 153 140.455C150.818 137 149.909 133.03 150.273 128.545H174.455C174.515 130.061 174.955 131.273 175.773 132.182C176.591 133.091 177.727 133.742 179.182 134.136C180.636 134.53 182.333 134.727 184.273 134.727C187.545 134.727 190.379 133.924 192.773 132.318C195.167 130.742 196.636 127.909 197.182 123.818L199.182 112H198.455C197.182 114.364 195.47 116.379 193.318 118.045C191.167 119.682 188.697 120.939 185.909 121.818C183.121 122.667 180.152 123.091 177 123.091C172.03 123.091 167.652 121.939 163.864 119.636C160.106 117.333 157.379 113.682 155.682 108.682C154.015 103.682 153.848 97.1515 155.182 89.0909C156.576 80.6667 159.03 73.8182 162.545 68.5455C166.061 63.2727 170.106 59.4091 174.682 56.9545C179.258 54.5 183.848 53.2727 188.455 53.2727C191.909 53.2727 194.833 53.8788 197.227 55.0909C199.621 56.2727 201.53 57.8636 202.955 59.8636C204.379 61.8333 205.364 64 205.909 66.3636H206.455L208.455 54.1818H233.545L221.909 123.818C221 129.758 218.682 134.788 214.955 138.909C211.258 143.061 206.47 146.212 200.591 148.364C194.742 150.545 188.152 151.636 180.818 151.636ZM189.182 105.273C191.485 105.273 193.576 104.636 195.455 103.364C197.333 102.061 198.924 100.212 200.227 97.8182C201.53 95.3939 202.455 92.4848 203 89.0909C203.545 85.6364 203.576 82.6818 203.091 80.2273C202.606 77.7424 201.652 75.8485 200.227 74.5455C198.803 73.2121 196.939 72.5455 194.636 72.5455C192.333 72.5455 190.258 73.2121 188.409 74.5455C186.561 75.8485 185 77.7424 183.727 80.2273C182.455 82.6818 181.545 85.6364 181 89.0909C180.455 92.5455 180.409 95.4848 180.864 97.9091C181.318 100.303 182.242 102.136 183.636 103.409C185.03 104.652 186.879 105.273 189.182 105.273Z"/>
</mask>
<path d="M180.818 151.636C173.788 151.636 167.939 150.636 163.273 148.636C158.636 146.667 155.212 143.939 153 140.455C150.818 137 149.909 133.03 150.273 128.545H174.455C174.515 130.061 174.955 131.273 175.773 132.182C176.591 133.091 177.727 133.742 179.182 134.136C180.636 134.53 182.333 134.727 184.273 134.727C187.545 134.727 190.379 133.924 192.773 132.318C195.167 130.742 196.636 127.909 197.182 123.818L199.182 112H198.455C197.182 114.364 195.47 116.379 193.318 118.045C191.167 119.682 188.697 120.939 185.909 121.818C183.121 122.667 180.152 123.091 177 123.091C172.03 123.091 167.652 121.939 163.864 119.636C160.106 117.333 157.379 113.682 155.682 108.682C154.015 103.682 153.848 97.1515 155.182 89.0909C156.576 80.6667 159.03 73.8182 162.545 68.5455C166.061 63.2727 170.106 59.4091 174.682 56.9545C179.258 54.5 183.848 53.2727 188.455 53.2727C191.909 53.2727 194.833 53.8788 197.227 55.0909C199.621 56.2727 201.53 57.8636 202.955 59.8636C204.379 61.8333 205.364 64 205.909 66.3636H206.455L208.455 54.1818H233.545L221.909 123.818C221 129.758 218.682 134.788 214.955 138.909C211.258 143.061 206.47 146.212 200.591 148.364C194.742 150.545 188.152 151.636 180.818 151.636ZM189.182 105.273C191.485 105.273 193.576 104.636 195.455 103.364C197.333 102.061 198.924 100.212 200.227 97.8182C201.53 95.3939 202.455 92.4848 203 89.0909C203.545 85.6364 203.576 82.6818 203.091 80.2273C202.606 77.7424 201.652 75.8485 200.227 74.5455C198.803 73.2121 196.939 72.5455 194.636 72.5455C192.333 72.5455 190.258 73.2121 188.409 74.5455C186.561 75.8485 185 77.7424 183.727 80.2273C182.455 82.6818 181.545 85.6364 181 89.0909C180.455 92.5455 180.409 95.4848 180.864 97.9091C181.318 100.303 182.242 102.136 183.636 103.409C185.03 104.652 186.879 105.273 189.182 105.273Z" fill="#7752FE"/>
<path d="M163.273 148.636L164.061 146.798L164.055 146.796L163.273 148.636ZM153 140.455L151.309 141.523L151.311 141.526L153 140.455ZM150.273 128.545V126.545H148.428L148.279 128.384L150.273 128.545ZM174.455 128.545L176.453 128.466L176.376 126.545H174.455V128.545ZM175.773 132.182L177.259 130.844L177.259 130.844L175.773 132.182ZM179.182 134.136L179.705 132.206L179.705 132.206L179.182 134.136ZM192.773 132.318L191.673 130.648L191.666 130.652L191.658 130.657L192.773 132.318ZM197.182 123.818L195.21 123.484L195.204 123.519L195.199 123.554L197.182 123.818ZM199.182 112L201.154 112.334L201.549 110H199.182V112ZM198.455 112V110H197.26L196.694 111.052L198.455 112ZM193.318 118.045L194.529 119.637L194.536 119.632L194.543 119.627L193.318 118.045ZM185.909 121.818L186.491 123.732L186.501 123.729L186.51 123.726L185.909 121.818ZM163.864 119.636L162.819 121.342L162.825 121.345L163.864 119.636ZM155.682 108.682L153.784 109.314L153.788 109.325L155.682 108.682ZM155.182 89.0909L153.209 88.7644L153.209 88.7645L155.182 89.0909ZM162.545 68.5455L164.21 69.6549L164.21 69.6549L162.545 68.5455ZM174.682 56.9545L173.736 55.1921L173.736 55.1921L174.682 56.9545ZM197.227 55.0909L196.324 56.8752L196.333 56.8798L196.342 56.8843L197.227 55.0909ZM202.955 59.8636L201.325 61.0238L201.33 61.0297L201.334 61.0355L202.955 59.8636ZM205.909 66.3636L203.96 66.8134L204.318 68.3636H205.909V66.3636ZM206.455 66.3636V68.3636H208.153L208.428 66.6877L206.455 66.3636ZM208.455 54.1818V52.1818H206.756L206.481 53.8578L208.455 54.1818ZM233.545 54.1818L235.518 54.5114L235.907 52.1818H233.545V54.1818ZM221.909 123.818L219.936 123.489L219.934 123.502L219.932 123.516L221.909 123.818ZM214.955 138.909L213.471 137.568L213.466 137.573L213.461 137.579L214.955 138.909ZM200.591 148.364L199.904 146.485L199.892 146.49L200.591 148.364ZM195.455 103.364L196.576 105.019L196.585 105.013L196.594 105.007L195.455 103.364ZM200.227 97.8182L201.984 98.7743L201.989 98.7651L200.227 97.8182ZM203 89.0909L204.975 89.4083L204.976 89.4028L203 89.0909ZM203.091 80.2273L201.128 80.6103L201.129 80.6148L203.091 80.2273ZM200.227 74.5455L198.86 76.0055L198.869 76.0133L198.877 76.0211L200.227 74.5455ZM188.409 74.5455L189.561 76.1801L189.57 76.1739L189.579 76.1675L188.409 74.5455ZM183.727 80.2273L185.503 81.1479L185.507 81.139L183.727 80.2273ZM181 89.0909L179.024 88.779L179.024 88.779L181 89.0909ZM180.864 97.9091L178.898 98.2777L178.899 98.2822L180.864 97.9091ZM183.636 103.409L182.288 104.886L182.297 104.894L182.306 104.902L183.636 103.409ZM180.818 149.636C173.961 149.636 168.402 148.659 164.061 146.798L162.485 150.475C167.477 152.614 173.614 153.636 180.818 153.636V149.636ZM164.055 146.796C159.708 144.949 156.639 142.456 154.689 139.383L151.311 141.526C153.785 145.423 157.565 148.384 162.491 150.477L164.055 146.796ZM154.691 139.387C152.764 136.336 151.934 132.806 152.266 128.707L148.279 128.384C147.884 133.254 148.872 137.664 151.309 141.523L154.691 139.387ZM150.273 130.545H174.455V126.545H150.273V130.545ZM172.456 128.625C172.531 130.491 173.087 132.187 174.286 133.52L177.259 130.844C176.823 130.359 176.5 129.63 176.453 128.466L172.456 128.625ZM174.286 133.52C175.416 134.775 176.919 135.596 178.659 136.067L179.705 132.206C178.535 131.889 177.766 131.407 177.259 130.844L174.286 133.52ZM178.659 136.067C180.325 136.518 182.204 136.727 184.273 136.727V132.727C182.462 132.727 180.948 132.543 179.705 132.206L178.659 136.067ZM184.273 136.727C187.887 136.727 191.12 135.835 193.887 133.979L191.658 130.657C189.637 132.013 187.204 132.727 184.273 132.727V136.727ZM193.872 133.989C196.933 131.974 198.577 128.488 199.164 124.083L195.199 123.554C194.696 127.33 193.4 129.511 191.673 130.648L193.872 133.989ZM199.154 124.152L201.154 112.334L197.21 111.666L195.21 123.484L199.154 124.152ZM199.182 110H198.455V114H199.182V110ZM196.694 111.052C195.555 113.166 194.027 114.966 192.093 116.464L194.543 119.627C196.912 117.791 198.808 115.561 200.215 112.948L196.694 111.052ZM192.107 116.454C190.154 117.939 187.894 119.096 185.308 119.911L186.51 123.726C189.5 122.783 192.18 121.424 194.529 119.637L192.107 116.454ZM185.327 119.905C182.742 120.691 179.97 121.091 177 121.091V125.091C180.333 125.091 183.5 124.642 186.491 123.732L185.327 119.905ZM177 121.091C172.351 121.091 168.341 120.018 164.903 117.927L162.825 121.345C166.962 123.861 171.709 125.091 177 125.091V121.091ZM164.909 117.931C161.625 115.918 159.154 112.688 157.576 108.039L153.788 109.325C155.604 114.676 158.587 118.748 162.819 121.342L164.909 117.931ZM157.579 108.049C156.057 103.482 155.848 97.3171 157.155 89.4173L153.209 88.7645C151.849 96.9859 151.974 103.881 153.784 109.314L157.579 108.049ZM157.155 89.4174C158.518 81.1811 160.896 74.6246 164.21 69.6549L160.881 67.4361C157.164 73.0118 154.634 80.1523 153.209 88.7644L157.155 89.4174ZM164.21 69.6549C167.582 64.5959 171.398 60.9855 175.627 58.717L173.736 55.1921C168.814 57.8327 164.539 61.9495 160.881 67.4361L164.21 69.6549ZM175.627 58.717C179.95 56.3983 184.219 55.2727 188.455 55.2727V51.2727C183.478 51.2727 178.565 52.6017 173.736 55.1921L175.627 58.717ZM188.455 55.2727C191.683 55.2727 194.279 55.8397 196.324 56.8752L198.131 53.3066C195.388 51.9179 192.136 51.2727 188.455 51.2727V55.2727ZM196.342 56.8843C198.466 57.9328 200.109 59.3162 201.325 61.0238L204.584 58.7035C202.951 56.4111 200.776 54.6126 198.113 53.2975L196.342 56.8843ZM201.334 61.0355C202.602 62.7893 203.475 64.7105 203.96 66.8134L207.858 65.9139C207.252 63.2895 206.156 60.8774 204.575 58.6917L201.334 61.0355ZM205.909 68.3636H206.455V64.3636H205.909V68.3636ZM208.428 66.6877L210.428 54.5058L206.481 53.8578L204.481 66.0396L208.428 66.6877ZM208.455 56.1818H233.545V52.1818H208.455V56.1818ZM231.573 53.8522L219.936 123.489L223.882 124.148L235.518 54.5114L231.573 53.8522ZM219.932 123.516C219.077 129.101 216.914 133.761 213.471 137.568L216.438 140.251C220.449 135.815 222.923 130.414 223.886 124.121L219.932 123.516ZM213.461 137.579C210.01 141.454 205.512 144.433 199.904 146.485L201.278 150.242C207.427 147.991 212.505 144.667 216.448 140.239L213.461 137.579ZM199.892 146.49C194.302 148.575 187.954 149.636 180.818 149.636V153.636C188.349 153.636 195.183 152.516 201.29 150.237L199.892 146.49ZM189.182 107.273C191.878 107.273 194.361 106.52 196.576 105.019L194.333 101.708C192.79 102.753 191.091 103.273 189.182 103.273V107.273ZM196.594 105.007C198.774 103.495 200.56 101.39 201.984 98.7743L198.471 96.862C197.288 99.0341 195.892 100.626 194.315 101.72L196.594 105.007ZM201.989 98.7651C203.42 96.1024 204.402 92.9699 204.975 89.4083L201.025 88.7736C200.507 91.9998 199.64 94.6855 198.466 96.8713L201.989 98.7651ZM204.976 89.4028C205.544 85.8015 205.598 82.5966 205.053 79.8397L201.129 80.6148C201.554 82.767 201.547 85.4712 201.024 88.779L204.976 89.4028ZM205.054 79.8442C204.512 77.0696 203.403 74.7405 201.577 73.0698L198.877 76.0211C199.9 76.9565 200.7 78.4153 201.128 80.6103L205.054 79.8442ZM201.594 73.0854C199.734 71.3438 197.349 70.5455 194.636 70.5455V74.5455C196.529 74.5455 197.872 75.0805 198.86 76.0055L201.594 73.0854ZM194.636 70.5455C191.918 70.5455 189.432 71.3416 187.239 72.9234L189.579 76.1675C191.083 75.0826 192.749 74.5455 194.636 74.5455V70.5455ZM187.257 72.9108C185.089 74.4392 183.333 76.609 181.947 79.3155L185.507 81.139C186.667 78.8759 188.033 77.2578 189.561 76.1801L187.257 72.9108ZM181.952 79.3066C180.558 81.9949 179.595 85.1657 179.024 88.779L182.976 89.4028C183.496 86.107 184.351 83.3688 185.503 81.1479L181.952 79.3066ZM179.024 88.779C178.457 92.3726 178.388 95.5563 178.898 98.2777L182.829 97.5405C182.431 95.4134 182.452 92.7183 182.976 89.4028L179.024 88.779ZM178.899 98.2822C179.41 100.977 180.492 103.247 182.288 104.886L184.985 101.932C183.993 101.026 183.226 99.6292 182.829 97.536L178.899 98.2822ZM182.306 104.902C184.146 106.543 186.507 107.273 189.182 107.273V103.273C187.25 103.273 185.914 102.76 184.967 101.916L182.306 104.902Z" fill="#0A0A0A" mask="url(#path-5-outside-3_2_30)"/>
<mask id="path-7-outside-4_2_30" maskUnits="userSpaceOnUse" x="79" y="28" width="46" height="98" fill="black">
<rect fill="white" x="79" y="28" width="46" height="98"/>
<path d="M122.091 30.9091L106.636 124H81.5455L97 30.9091H122.091Z"/>
</mask>
<path d="M122.091 30.9091L106.636 124H81.5455L97 30.9091H122.091Z" fill="#7752FE"/>
<path d="M122.091 30.9091L124.064 31.2366L124.45 28.9091H122.091V30.9091ZM106.636 124V126H108.332L108.609 124.328L106.636 124ZM81.5455 124L79.5725 123.672L79.186 126H81.5455V124ZM97 30.9091V28.9091H95.3047L95.027 30.5815L97 30.9091ZM120.118 30.5815L104.663 123.672L108.609 124.328L124.064 31.2366L120.118 30.5815ZM106.636 122H81.5455V126H106.636V122ZM83.5185 124.328L98.973 31.2366L95.027 30.5815L79.5725 123.672L83.5185 124.328ZM97 32.9091H122.091V28.9091H97V32.9091Z" fill="#0A0A0A" mask="url(#path-7-outside-4_2_30)"/>
<path d="M33.491 92.8799L32.4415 99.1852L12.6965 84.9261L14.0258 76.9394L36.1356 76.9905L35.0862 83.2959L19.1412 82.802L19.1132 82.9701L33.491 92.8799ZM25.0418 91.2144L27.0148 79.3605L31.2606 80.8447L29.2876 92.6987L25.0418 91.2144Z" fill="#E5E7EB"/>
<path d="M29.7703 117.601L28.7208 123.907L8.97581 109.648L10.3051 101.661L32.4149 101.712L31.3655 108.017L15.4205 107.524L15.3925 107.692L29.7703 117.601ZM21.3211 115.936L23.2941 104.082L27.5399 105.566L25.5669 117.42L21.3211 115.936Z" fill="#E5E7EB"/>
<path d="M11.1847 93.9462L26.6743 94.5803L26.7022 94.4122L12.6819 84.9506L13.7803 78.3511L33.5253 92.6102L32.196 100.597L10.0862 100.546L11.1847 93.9462Z" fill="#E5E7EB"/>
</svg>
